<?xml version="1.0" encoding="UTF-8"?>
<svg xmlns="http://www.w3.org/2000/svg" xmlns:xlink="http://www.w3.org/1999/xlink" viewBox="0 0 120 120" width="120px" height="120px">
<g id="surface289857762">
<path style=" stroke:none;fill-rule:nonzero;fill:rgb(100%,100%,100%);fill-opacity:1;" d="M 60 12 C 33.492188 12 12 33.492188 12 60 C 12 80.335938 24.652344 97.703125 42.507812 104.695312 C 42.089844 100.898438 41.707031 95.070312 42.675781 90.929688 C 43.546875 87.183594 48.304688 67.066406 48.304688 67.066406 C 48.304688 67.066406 46.867188 64.191406 46.867188 59.945312 C 46.867188 53.269531 50.734375 48.289062 55.550781 48.289062 C 59.648438 48.289062 61.625 51.363281 61.625 55.046875 C 61.625 59.167969 59.003906 65.324219 57.648438 71.027344 C 56.515625 75.808594 60.042969 79.703125 64.757812 79.703125 C 73.289062 79.703125 79.84375 70.707031 79.84375 57.722656 C 79.84375 46.230469 71.589844 38.195312 59.796875 38.195312 C 46.140625 38.195312 38.125 48.441406 38.125 59.027344 C 38.125 63.152344 39.710938 67.574219 41.695312 69.984375 C 42.089844 70.460938 42.144531 70.875 42.027344 71.359375 C 41.664062 72.875 40.855469 76.136719 40.695312 76.804688 C 40.488281 77.683594 40 77.867188 39.09375 77.445312 C 33.097656 74.652344 29.347656 65.886719 29.347656 58.847656 C 29.347656 43.707031 40.347656 29.800781 61.0625 29.800781 C 77.714844 29.800781 90.65625 41.664062 90.65625 57.523438 C 90.65625 74.066406 80.222656 87.378906 65.746094 87.378906 C 60.882812 87.378906 56.3125 84.851562 54.746094 81.867188 C 54.746094 81.867188 52.339844 91.03125 51.757812 93.28125 C 50.671875 97.449219 47.746094 102.675781 45.789062 105.863281 C 50.28125 107.246094 55.050781 108 60 108 C 86.507812 108 108 86.507812 108 60 C 108 33.492188 86.507812 12 60 12 Z M 60 12 "/>
</g>
</svg>
